<?xml version="1.0" encoding="UTF-8"?>
<svg id="svg1055" version="1.1" viewBox="0 0 144 80" xmlns="http://www.w3.org/2000/svg" xmlns:cc="http://creativecommons.org/ns#" xmlns:dc="http://purl.org/dc/elements/1.1/" xmlns:rdf="http://www.w3.org/1999/02/22-rdf-syntax-ns#">
 <metadata id="metadata1059">
  <rdf:RDF>
   <cc:Work rdf:about="">
    <dc:format>image/svg+xml</dc:format>
    <dc:type rdf:resource="http://purl.org/dc/dcmitype/StillImage"/>
    <dc:title>Data Set 61</dc:title>
   </cc:Work>
  </rdf:RDF>
 </metadata>
 <defs id="defs967">
  <style id="style965">.cls-1 {
        fill: #7dbb48;
      }

      .cls-2 {
        fill: #28abe3;
      }

      .cls-3 {
        fill: #e32185;
      }

      .cls-4 {
        fill: #ef7b24;
      }

      .cls-5 {
        font-size: 10px;
        font-family: WorkSans-Bold, Work Sans;
        font-weight: 700;
      }

      .cls-6 {
        letter-spacing: -0.02em;
      }</style>
 </defs>
 <title id="title969">Data Set 61</title>
 <g id="logo">
  <g id="g1045">
   <g id="g1019">
    <g id="g985">
     <path id="path971" d="m12.54 60.19v0.71h-4.54v-6.24h4.4v0.71h-3.64v2h2.83v0.71h-2.83v2.09z"/>
     <path id="path973" d="m16.73 56.18-0.15 0.73a1.31 1.31 0 0 0-0.6-0.12 1.16 1.16 0 0 0-0.6 0.18 1.23 1.23 0 0 0-0.47 0.53 1.84 1.84 0 0 0-0.19 0.85v2.55h-0.72v-4.72h0.62l0.11 0.77a1.51 1.51 0 0 1 1.52-0.87 1.07 1.07 0 0 1 0.48 0.1z"/>
     <path id="path975" d="m22.28 60.31-0.05 0.59a1.56 1.56 0 0 1-0.57 0.1 0.91 0.91 0 0 1-0.58-0.16 0.74 0.74 0 0 1-0.27-0.54 1.52 1.52 0 0 1-0.64 0.52 2.28 2.28 0 0 1-0.89 0.18 1.92 1.92 0 0 1-1.16-0.33 1.06 1.06 0 0 1-0.46-0.94 1.17 1.17 0 0 1 0.48-0.93 2.85 2.85 0 0 1 1.37-0.54l1.27-0.21v-0.27a1 1 0 0 0-0.3-0.75 1.11 1.11 0 0 0-0.81-0.29 1.52 1.52 0 0 0-0.83 0.23 1.44 1.44 0 0 0-0.53 0.67l-0.56-0.4a1.55 1.55 0 0 1 0.71-0.85 2.34 2.34 0 0 1 1.21-0.31 2.11 2.11 0 0 1 1.35 0.41 1.42 1.42 0 0 1 0.52 1.2v2.31a0.3 0.3 0 0 0 0.36 0.34 1.65 1.65 0 0 0 0.38-0.03zm-1.93-0.26a0.86 0.86 0 0 0 0.43-0.73v-0.66l-1.07 0.2a2.66 2.66 0 0 0-0.95 0.33 0.62 0.62 0 0 0-0.31 0.54 0.51 0.51 0 0 0 0.23 0.45 1 1 0 0 0 0.63 0.16 1.87 1.87 0 0 0 1.04-0.29z"/>
     <path id="path977" d="m24.06 60.73a1.7 1.7 0 0 1-0.81-0.8l0.62-0.43a1.19 1.19 0 0 0 0.56 0.63 2 2 0 0 0 0.94 0.21 1.56 1.56 0 0 0 0.86-0.2 0.59 0.59 0 0 0 0.29-0.5 0.49 0.49 0 0 0-0.27-0.44 3.13 3.13 0 0 0-1-0.29 4.74 4.74 0 0 1-1.09-0.3 1.32 1.32 0 0 1-0.57-0.44 1.13 1.13 0 0 1-0.19-0.67 1.23 1.23 0 0 1 0.23-0.71 1.6 1.6 0 0 1 0.66-0.52 2.5 2.5 0 0 1 1-0.19 2.32 2.32 0 0 1 1.22 0.28 1.62 1.62 0 0 1 0.66 0.86l-0.65 0.37a1.15 1.15 0 0 0-0.46-0.65 1.59 1.59 0 0 0-1.56 0 0.59 0.59 0 0 0-0.33 0.48 0.57 0.57 0 0 0 0.28 0.49 3.28 3.28 0 0 0 1 0.29 3.2 3.2 0 0 1 1.39 0.48 1.08 1.08 0 0 1 0.41 0.91 1.16 1.16 0 0 1-0.24 0.72 1.59 1.59 0 0 1-0.69 0.5 2.85 2.85 0 0 1-1.02 0.19 2.79 2.79 0 0 1-1.24-0.27z"/>
     <path id="path979" d="m35.17 56.27a1.51 1.51 0 0 1 0.67 0.61 1.83 1.83 0 0 1 0.26 1v3h-0.76v-2.88a1.19 1.19 0 0 0-0.34-1 1.13 1.13 0 0 0-0.81-0.3 1.29 1.29 0 0 0-0.7 0.19 1.33 1.33 0 0 0-0.51 0.54 1.71 1.71 0 0 0-0.2 0.84v2.63h-0.76v-2.9a1.19 1.19 0 0 0-0.31-0.91 1.09 1.09 0 0 0-0.81-0.3 1.31 1.31 0 0 0-0.66 0.18 1.4 1.4 0 0 0-0.54 0.54 1.84 1.84 0 0 0-0.2 0.92v2.47h-0.76v-4.72h0.66l0.05 0.73a1.61 1.61 0 0 1 0.65-0.62 1.86 1.86 0 0 1 0.87-0.21 2 2 0 0 1 1 0.24 1.54 1.54 0 0 1 0.67 0.69 1.44 1.44 0 0 1 0.69-0.69 2.11 2.11 0 0 1 1-0.24 2.17 2.17 0 0 1 0.84 0.19z"/>
     <path id="path981" d="m42 56.18v4.72h-0.67l-0.05-0.71a2.12 2.12 0 0 1-2.95 0.38 1.62 1.62 0 0 1-0.49-1.3v-3.09h0.76v2.89a1.37 1.37 0 0 0 0.28 1 1.14 1.14 0 0 0 0.84 0.29 1.59 1.59 0 0 0 1.09-0.4 1.56 1.56 0 0 0 0.43-1.19v-2.59z"/>
     <path id="path983" d="m44.2 60.73a1.7 1.7 0 0 1-0.81-0.8l0.61-0.43a1.12 1.12 0 0 0 0.56 0.63 2 2 0 0 0 0.94 0.21 1.52 1.52 0 0 0 0.85-0.2 0.58 0.58 0 0 0 0.3-0.5 0.48 0.48 0 0 0-0.28-0.44 3 3 0 0 0-1-0.29 4.79 4.79 0 0 1-1.08-0.3 1.29 1.29 0 0 1-0.58-0.44 1.2 1.2 0 0 1-0.18-0.67 1.23 1.23 0 0 1 0.23-0.71 1.63 1.63 0 0 1 0.65-0.52 2.57 2.57 0 0 1 1-0.19 2.27 2.27 0 0 1 1.22 0.28 1.53 1.53 0 0 1 0.66 0.86l-0.64 0.37a1.2 1.2 0 0 0-0.46-0.65 1.46 1.46 0 0 0-0.78-0.2 1.43 1.43 0 0 0-0.79 0.21 0.59 0.59 0 0 0-0.32 0.48 0.55 0.55 0 0 0 0.28 0.49 3.19 3.19 0 0 0 1 0.29 3.25 3.25 0 0 1 1.4 0.48 1.11 1.11 0 0 1 0.41 0.91 1.16 1.16 0 0 1-0.24 0.72 1.68 1.68 0 0 1-0.7 0.5 2.82 2.82 0 0 1-1 0.18 2.74 2.74 0 0 1-1.25-0.27z"/>
    </g>
    <g id="g1001">
     <path id="path987" d="m58.48 55.89-0.66 0.53a2.06 2.06 0 0 0-0.68-0.88 1.88 1.88 0 0 0-1.08-0.26 2 2 0 0 0-1.13 0.29 0.91 0.91 0 0 0-0.42 0.77 0.81 0.81 0 0 0 0.16 0.5 1.26 1.26 0 0 0 0.54 0.34 5 5 0 0 0 1 0.26 3.87 3.87 0 0 1 1.76 0.63 1.37 1.37 0 0 1 0.52 1.15 1.52 1.52 0 0 1-0.3 0.93 1.92 1.92 0 0 1-0.85 0.63 3.75 3.75 0 0 1-2.89-0.15 2.54 2.54 0 0 1-1-1l0.65-0.53a1.93 1.93 0 0 0 0.76 0.86 2.3 2.3 0 0 0 1.25 0.31 2.24 2.24 0 0 0 1.2-0.27 0.84 0.84 0 0 0 0.43-0.76 0.73 0.73 0 0 0-0.38-0.66 3.68 3.68 0 0 0-1.36-0.4 4.11 4.11 0 0 1-1.77-0.62 1.35 1.35 0 0 1-0.52-1.14 1.61 1.61 0 0 1 0.29-0.92 1.92 1.92 0 0 1 0.82-0.68 2.79 2.79 0 0 1 1.23-0.25 2.58 2.58 0 0 1 2.43 1.32z"/>
     <path id="path989" d="m63.12 60.57a1.76 1.76 0 0 1-1.23 0.43 1.38 1.38 0 0 1-0.94-0.31 1.22 1.22 0 0 1-0.38-1v-2.9h-1v-0.65h1v-1.14l0.76-0.21v1.35h1.76v0.65h-1.76v2.81a0.67 0.67 0 0 0 0.2 0.52 0.77 0.77 0 0 0 0.51 0.17 1.11 1.11 0 0 0 0.81-0.35z"/>
     <path id="path991" d="m68.48 56.18v4.72h-0.66v-0.71a1.8 1.8 0 0 1-1.7 0.81 1.84 1.84 0 0 1-1.26-0.43 1.62 1.62 0 0 1-0.49-1.3v-3.09h0.76v2.89a1.37 1.37 0 0 0 0.29 1 1.12 1.12 0 0 0 0.83 0.29 1.57 1.57 0 0 0 1.09-0.4 1.52 1.52 0 0 0 0.43-1.19v-2.59z"/>
     <path id="path993" d="m74.53 54v6.9h-0.66l-0.05-0.82a1.59 1.59 0 0 1-0.64 0.67 1.91 1.91 0 0 1-1 0.25 2 2 0 0 1-1.59-0.66 3.08 3.08 0 0 1 0-3.6 2 2 0 0 1 1.59-0.66 1.91 1.91 0 0 1 0.93 0.23 1.61 1.61 0 0 1 0.64 0.6v-2.91zm-1.16 5.86a1.85 1.85 0 0 0 0.4-1.26v-0.12a1.85 1.85 0 0 0-0.4-1.26 1.35 1.35 0 0 0-1.09-0.48 1.33 1.33 0 0 0-1.09 0.49 2.35 2.35 0 0 0 0 2.62 1.33 1.33 0 0 0 1.09 0.49 1.35 1.35 0 0 0 1.09-0.48z"/>
     <path id="path995" d="m80.4 58.82h-3.58a1.76 1.76 0 0 0 0.48 1.12 1.51 1.51 0 0 0 1.07 0.4 1.87 1.87 0 0 0 0.87-0.18 1 1 0 0 0 0.47-0.52l0.64 0.33a2 2 0 0 1-0.76 0.76 2.45 2.45 0 0 1-1.22 0.27 2.2 2.2 0 0 1-1.68-0.65 2.55 2.55 0 0 1-0.62-1.81 2.63 2.63 0 0 1 0.59-1.81 2.12 2.12 0 0 1 1.65-0.65 2.21 2.21 0 0 1 1.15 0.29 2 2 0 0 1 0.74 0.8 2.56 2.56 0 0 1 0.24 1.12 3.08 3.08 0 0 1-0.04 0.53zm-3.1-1.71a1.74 1.74 0 0 0-0.47 1h2.88a1.72 1.72 0 0 0-0.44-1 1.27 1.27 0 0 0-1-0.38 1.44 1.44 0 0 0-0.97 0.38z"/>
     <path id="path997" d="m85.61 56.55a1.66 1.66 0 0 1 0.52 1.33v3h-0.76v-2.74a1.47 1.47 0 0 0-0.32-1.07 1.11 1.11 0 0 0-0.85-0.33 1.58 1.58 0 0 0-0.71 0.17 1.35 1.35 0 0 0-0.55 0.54 1.9 1.9 0 0 0-0.21 0.94v2.51h-0.73v-4.72h0.67v0.73a1.54 1.54 0 0 1 0.66-0.63 2.2 2.2 0 0 1 0.94-0.2 1.93 1.93 0 0 1 1.34 0.47z"/>
     <path id="path999" d="m90.79 60.57a1.72 1.72 0 0 1-1.22 0.43 1.41 1.41 0 0 1-0.95-0.31 1.21 1.21 0 0 1-0.37-1v-2.9h-1v-0.65h1v-1.14l0.76-0.21v1.35h1.76v0.65h-1.77v2.81a0.67 0.67 0 0 0 0.19 0.52 0.79 0.79 0 0 0 0.52 0.17 1.13 1.13 0 0 0 0.81-0.35z"/>
    </g>
    <g id="g1017">
     <path id="path1003" d="m101.77 60.9h-0.94l-2.63-4.18-0.66-1.22v5.4h-0.73v-6.24h1l2.61 4.16 0.67 1.25v-5.41h0.73z"/>
     <path id="path1005" d="m107.79 58.82h-3.58a1.66 1.66 0 0 0 0.48 1.12 1.49 1.49 0 0 0 1.07 0.4 1.87 1.87 0 0 0 0.87-0.18 1 1 0 0 0 0.47-0.52l0.63 0.33a1.92 1.92 0 0 1-0.76 0.76 2.41 2.41 0 0 1-1.21 0.27 2.22 2.22 0 0 1-1.69-0.65 2.54 2.54 0 0 1-0.61-1.81 2.63 2.63 0 0 1 0.58-1.81 2.12 2.12 0 0 1 1.66-0.65 2.23 2.23 0 0 1 1.15 0.29 1.94 1.94 0 0 1 0.73 0.8 2.43 2.43 0 0 1 0.25 1.12 3.08 3.08 0 0 1-0.04 0.53zm-3.1-1.71a1.68 1.68 0 0 0-0.47 1h2.88a1.72 1.72 0 0 0-0.44-1 1.27 1.27 0 0 0-1-0.38 1.43 1.43 0 0 0-0.97 0.38z"/>
     <path id="path1007" d="m112.26 60.57a1.72 1.72 0 0 1-1.26 0.43 1.41 1.41 0 0 1-1-0.31 1.21 1.21 0 0 1-0.37-1v-2.9h-1v-0.65h1v-1.14l0.76-0.21v1.35h1.76v0.65h-1.76v2.81a0.67 0.67 0 0 0 0.19 0.52 0.79 0.79 0 0 0 0.52 0.17 1.13 1.13 0 0 0 0.81-0.35z"/>
     <path id="path1009" d="m120.64 56.18-1.64 4.72h-0.76l-1.34-3.76-1.26 3.76h-0.76l-1.66-4.72h0.85l1.2 3.85 1.29-3.85h0.76l1.28 3.82 1.2-3.85z"/>
     <path id="path1011" d="m125.54 56.73a3 3 0 0 1 0 3.62 2.22 2.22 0 0 1-1.69 0.65 2.18 2.18 0 0 1-1.68-0.65 3 3 0 0 1 0-3.62 2.18 2.18 0 0 1 1.68-0.65 2.22 2.22 0 0 1 1.69 0.65zm-2.82 0.49a2.33 2.33 0 0 0 0 2.64 1.55 1.55 0 0 0 2.26 0 2.33 2.33 0 0 0 0-2.64 1.55 1.55 0 0 0-2.26 0z"/>
     <path id="path1013" d="m130.46 56.18-0.15 0.73a1.31 1.31 0 0 0-0.6-0.12 1.13 1.13 0 0 0-0.6 0.18 1.23 1.23 0 0 0-0.47 0.53 1.84 1.84 0 0 0-0.19 0.85v2.55h-0.76v-4.72h0.62l0.11 0.77a1.51 1.51 0 0 1 1.52-0.87 1.07 1.07 0 0 1 0.52 0.1z"/>
     <path id="path1015" d="m133.48 58.57-1 1v1.33h-0.76v-6.9h0.76v4.63l2.46-2.45h0.95l-1.89 1.82 2 2.88h-0.92z"/>
    </g>
   </g>
   <path id="path1021" d="m77 40v3a1 1 0 0 1-1 1h-19a1 1 0 0 1-1-1v-30a1 1 0 0 1 1-1h18a1 1 0 0 1 1 1v3a1 1 0 0 1-1 1h-14v9h11a1 1 0 0 1 1 1v3a1 1 0 0 1-1 1h-11v8h15a1 1 0 0 1 1 1z"/>
   <path id="path1023" d="m116 44h-3a1 1 0 0 1-1-1v-30a1 1 0 0 1 1-1h4.4a1 1 0 0 1 0.88 0.52l12.72 23.48v-23a1 1 0 0 1 1-1h3a1 1 0 0 1 1 1v30a1 1 0 0 1-1 1h-4.42a1 1 0 0 1-0.87-0.51l-12.71-22.49v22a1 1 0 0 1-1 1z"/>
   <g id="g1041">
    <path id="path1025" class="cls-1" d="m31 9v11.76l-1.34 3.24h-3.32l-1.34-3.24v-11.76a1 1 0 0 1 1-1h4a1 1 0 0 1 1 1z"/>
    <path id="path1027" class="cls-2" d="m16.71 12.69 8.29 8.07 1.35 3.24-2.35 2.35-3.24-1.35-8.07-8.29a1 1 0 0 1 0-1.41l2.6-2.6a1 1 0 0 1 1.42-0.01z"/>
    <path id="path1029" class="cls-3" d="m9 25h11.76l3.24 1.34v3.32l-3.24 1.34h-11.76a1 1 0 0 1-1-1v-4a1 1 0 0 1 1-1z"/>
    <path id="path1031" class="cls-4" d="m12.47 39.29 8.29-8.29 3.24-1.35 2.35 2.35-1.35 3.24-8.32 8.1a1 1 0 0 1-1.38 0l-2.81-2.62a1 1 0 0 1-0.02-1.43z"/>
    <path id="path1033" class="cls-2" d="m25 47v-11.76l1.34-3.24h3.32l1.34 3.24v11.76a1 1 0 0 1-1 1h-4a1 1 0 0 1-1-1z"/>
    <path id="path1035" class="cls-1" d="m39.29 43.31-8.29-8.07-1.35-3.24 2.35-2.35 3.24 1.35 8.07 8.29a1 1 0 0 1 0 1.41l-2.6 2.6a1 1 0 0 1-1.42 0.01z"/>
    <path id="path1037" class="cls-4" d="m47 31h-11.76l-3.24-1.34v-3.32l3.24-1.34h11.76a1 1 0 0 1 1 1v4a1 1 0 0 1-1 1z"/>
    <path id="path1039" class="cls-3" d="m43.31 16.71-8.07 8.29-3.24 1.35-2.35-2.35 1.35-3.24 8.29-8.07a1 1 0 0 1 1.41 0l2.6 2.6a1 1 0 0 1 0.01 1.42z"/>
   </g>
   <path id="path1043" d="m106.08 35.3a8.31 8.31 0 0 1-1.52 4.93 9.63 9.63 0 0 1-4.26 3.27 17.64 17.64 0 0 1-14.23-0.75 13.78 13.78 0 0 1-3.4-2.92 1 1 0 0 1 0.16-1.45l2.33-1.75a1 1 0 0 1 1.42 0.23 6.77 6.77 0 0 0 1.88 1.81 10.33 10.33 0 0 0 5.67 1.45 9.79 9.79 0 0 0 5.34-1.26 3.75 3.75 0 0 0 1.85-3.37 3.29 3.29 0 0 0-1.59-2.88 17.84 17.84 0 0 0-6.23-2c-0.54-0.1-1-0.2-1.54-0.31a17.44 17.44 0 0 1-7.15-2.9 7.38 7.38 0 0 1-2.67-6 8.86 8.86 0 0 1 1.44-4.88 9.92 9.92 0 0 1 4.08-3.52 13.81 13.81 0 0 1 6.12-1.3c5 0 9.16 1.84 11.69 5.51a1 1 0 0 1-0.21 1.39l-2.36 1.77a1 1 0 0 1-1.44-0.27 9.11 9.11 0 0 0-2.8-2.66 8.39 8.39 0 0 0-4.84-1.21 8.36 8.36 0 0 0-5.11 1.38 4 4 0 0 0-1.71 3.39 3.4 3.4 0 0 0 0.66 2.19 5.74 5.74 0 0 0 2.34 1.51 25.08 25.08 0 0 0 4.82 1.3c0.55 0.1 1.08 0.2 1.59 0.32a16.34 16.34 0 0 1 7 2.9 7.59 7.59 0 0 1 2.67 6.08z"/>
  </g>
 </g>
 <g id="title">
  <path id="path1271" d="m96.23 65.42-2.34 6.6h-2.02l-2.35-6.6h1.81l1.21 3.99 0.36 1.3 0.35-1.28 1.23-4.01z"/>
  <path id="path1273" d="m102.79 65.42v3.91q0 1.4-0.75 2.1-0.74 0.69-2.2 0.69-1.45 0-2.2-0.69-0.75-0.7-0.75-2.1v-3.91h1.73v3.94q0 0.71 0.3 1.06 0.31 0.35 0.92 0.35 0.62 0 0.92-0.35 0.31-0.35 0.31-1.06v-3.94z"/>
  <path id="path1275" d="m109.7 65.42v1.33h-2.15v5.27h-1.72v-5.27h-2.16v-1.33z"/>
  <path id="path1277" d="m113.37 72.02v-6.6h3.21q1.22 0.01 1.8 0.47 0.58 0.45 0.58 1.31 0 0.56-0.33 0.97-0.33 0.4-1.01 0.51v0.01q0.76 0.1 1.13 0.53 0.38 0.42 0.38 1.02 0 0.85-0.6 1.32-0.6 0.46-1.8 0.46zm1.66-1.21h1.41q0.47 0 0.7-0.19t0.23-0.55q0-0.35-0.23-0.53-0.23-0.19-0.7-0.19h-1.41zm0-2.69h1.25q0.92 0 0.92-0.72t-0.92-0.72h-1.25z"/>
  <path id="path1279" d="m120.09 72.02v-5h1.5l0.07 1.08q0.19-0.56 0.56-0.87 0.38-0.31 0.96-0.31 0.19 0 0.32 0.03 0.14 0.03 0.22 0.08l-0.17 1.4q-0.1-0.04-0.26-0.06-0.15-0.03-0.37-0.03-0.3 0-0.56 0.13t-0.42 0.39q-0.15 0.25-0.15 0.64v2.52z"/>
  <path id="path1281" d="m124.39 72.02v-5h1.52l0.09 1.72-0.19-0.19q0.1-0.54 0.35-0.9 0.26-0.36 0.64-0.54 0.39-0.19 0.87-0.19 0.52 0 0.9 0.2 0.39 0.2 0.61 0.59t0.22 0.98v3.33h-1.7v-2.88q0-0.52-0.2-0.72t-0.51-0.2q-0.24 0-0.45 0.12-0.21 0.11-0.33 0.36t-0.12 0.67v2.65z"/>
  <path id="path1283" d="m132.97 66.92q0.79 0 1.38 0.31 0.6 0.3 0.93 0.89 0.34 0.58 0.34 1.4t-0.34 1.41q-0.33 0.58-0.93 0.89-0.59 0.3-1.38 0.3-0.77 0-1.37-0.3-0.6-0.31-0.94-0.89-0.33-0.59-0.33-1.41t0.33-1.4q0.34-0.59 0.94-0.89 0.6-0.31 1.37-0.31zm0 1.21q-0.29 0-0.5 0.14t-0.32 0.45-0.11 0.8 0.11 0.8q0.11 0.3 0.32 0.45 0.21 0.14 0.5 0.14 0.3 0 0.51-0.14 0.21-0.15 0.32-0.45 0.11-0.31 0.11-0.8t-0.11-0.8-0.32-0.45-0.51-0.14z"/>
 </g>
</svg>
